<?xml version="1.0" encoding="utf-8"?>
<!-- Generator: Adobe Illustrator 27.5.0, SVG Export Plug-In . SVG Version: 6.00 Build 0)  -->
<svg version="1.1" xmlns="http://www.w3.org/2000/svg" xmlns:xlink="http://www.w3.org/1999/xlink" x="0px" y="0px"
	 viewBox="0 0 600 500" style="enable-background:new 0 0 600 500;" xml:space="preserve">
<g id="BACKGROUND">
	<rect style="fill:#F1DEDC;" width="600" height="500"/>
	<g>
		<path style="fill:#F1C1BC;" d="M318.841,152.342c-14.267,4.684-28.635,9.391-43.608,11.483
			c-14.974,2.092-30.757,1.43-44.733-4.322c-13.974-5.752-25.885-17.107-29.484-31.079c-3.598-13.972,2.47-30.175,15.74-36.946
			c9.402-4.798,20.855-4.546,31.448-2.699c10.592,1.847,20.933,5.159,31.645,6.113c14.127,1.258,28.244-1.642,41.774-5.461
			c13.801-3.896,28.46-8.796,42.316-4.71c9.088,2.68,16.852,9.328,20.443,17.669c3.592,8.342,2.889,18.213-1.973,25.847
			c-5.796,9.101-16.548,14.324-27.331,17.396C344.296,148.703,332.348,147.908,318.841,152.342z"/>
		<path style="fill:#F1C1BC;" d="M323.465,422.118c-142.091,14.109-221.808-49.742-225.814-127.816
			c-5.098-99.334,73.271-125.501,168.512-106.781c95.241,18.719,173.343-65.366,237.404-9.932
			C567.626,233.022,544.263,400.193,323.465,422.118z"/>
	</g>
</g>
<g id="OBJECTS">
	<g>
		<g>
			<linearGradient id="SVGID_1_" gradientUnits="userSpaceOnUse" x1="102.2442" y1="331.518" x2="28.2717" y2="379.946">
				<stop  offset="0" style="stop-color:#49AD9F"/>
				<stop  offset="1" style="stop-color:#76C9BF"/>
			</linearGradient>
			<path style="fill:url(#SVGID_1_);" d="M114.683,343.435c-0.436-6.756-4.604-12.962-10.237-16.721
				c-5.632-3.758-12.57-5.238-19.34-5.085c-6.769,0.154-13.416,1.855-19.827,4.031c-11.593,3.934-22.827,9.588-31.567,18.159
				c-8.741,8.573-14.794,20.333-14.742,32.575c0.028,6.222,1.815,12.751,6.369,16.99c5.177,4.819,13.082,5.79,19.933,4.037
				c6.852-1.752,12.851-5.851,18.426-10.202c5.575-4.351,10.942-9.067,17.19-12.381c4.796-2.544,10.003-4.199,15.01-6.3
				c5.008-2.099,9.94-4.735,13.542-8.797C113.042,355.679,115.104,349.952,114.683,343.435z"/>
			
				<linearGradient id="SVGID_00000052087481491275104400000005096317421587462797_" gradientUnits="userSpaceOnUse" x1="118.2357" y1="300.5003" x2="108.9226" y2="200.451">
				<stop  offset="0" style="stop-color:#49AD9F"/>
				<stop  offset="1" style="stop-color:#76C9BF"/>
			</linearGradient>
			<path style="fill:url(#SVGID_00000052087481491275104400000005096317421587462797_);" d="M78.941,217.195
				c-2.656,15.697-5.313,31.769-2.524,47.443c2.788,15.674,12.139,31.141,27.018,36.806c13.19,5.022,29.313,0.982,38.576-9.666
				c7.587-8.722,10.367-20.732,10.54-32.293c0.173-11.56-1.982-23.011-3.039-34.524c-0.642-6.996-0.881-14.056-2.304-20.936
				s-4.139-13.691-9.044-18.721c-9.33-9.569-25.403-10.556-37.078-4.052C89.411,187.755,81.78,200.409,78.941,217.195z"/>
			<path style="fill:none;stroke:#2E2854;stroke-linecap:round;stroke-linejoin:round;stroke-miterlimit:10;" d="M43.094,367.608
				c24.162-21.565,58.609-31.016,90.403-24.996"/>
			<path style="fill:none;stroke:#2E2854;stroke-linecap:round;stroke-linejoin:round;stroke-miterlimit:10;" d="M109.134,207.57
				c-8.455,67.028,14.363,137.351,60.563,186.644"/>
		</g>
		<g>
			
				<linearGradient id="SVGID_00000143597454526955335460000005115372860822946967_" gradientUnits="userSpaceOnUse" x1="500.4212" y1="254.7877" x2="566.9433" y2="248.9337">
				<stop  offset="0" style="stop-color:#49AD9F"/>
				<stop  offset="1" style="stop-color:#76C9BF"/>
			</linearGradient>
			<path style="fill:url(#SVGID_00000143597454526955335460000005115372860822946967_);" d="M537.779,225.919
				c-7.16,0.293-14.202,1.354-20.904,3.892c-6.702,2.538-13.026,6.427-17.546,11.988c-4.519,5.561-7.081,12.915-5.998,20
				c1.081,7.083,6.157,13.649,13.05,15.613c7.098,2.022,14.552-0.825,21.884-1.674c7.01-0.811,14.092,0.225,21.148,0.217
				c7.057-0.008,14.523-1.25,19.882-5.841c5.783-4.955,8.089-13.326,6.5-20.774c-1.588-7.449-6.719-13.882-13.183-17.908
				C556.149,227.404,548.463,225.482,537.779,225.919z"/>
			
				<linearGradient id="SVGID_00000049215328568874180570000015091557302157790647_" gradientUnits="userSpaceOnUse" x1="487.5464" y1="221.5809" x2="493.9325" y2="117.2743">
				<stop  offset="0" style="stop-color:#49AD9F"/>
				<stop  offset="1" style="stop-color:#76C9BF"/>
			</linearGradient>
			<path style="fill:url(#SVGID_00000049215328568874180570000015091557302157790647_);" d="M449.073,176.902
				c0-13.804,2.394-27.651,6.693-40.769c4.3-13.118,12.038-25.581,23.724-32.927c7.094-4.459,15.881-6.875,23.97-4.693
				c11.637,3.139,18.937,14.684,23.044,26.014c7.401,20.416,8.076,43.208,1.894,64.025c-2.617,8.813-6.51,17.398-12.586,24.297
				c-6.078,6.898-14.523,11.996-23.682,12.792c-11.02,0.959-23.279-2.563-30.608-10.848
				C451.711,203.703,449.073,192.598,449.073,176.902z"/>
			<path style="fill:none;stroke:#2E2854;stroke-linecap:round;stroke-linejoin:round;stroke-miterlimit:10;" d="M491.045,129.833
				c-0.345,67.885-11.971,135.699-34.257,199.822"/>
			<path style="fill:none;stroke:#2E2854;stroke-linecap:round;stroke-linejoin:round;stroke-miterlimit:10;" d="M472.745,275.996
				c25.146-18.911,57.212-28.456,88.612-26.253"/>
		</g>
		<g>
			<g>
				<path style="fill:none;stroke:#2E2854;stroke-linecap:round;stroke-linejoin:round;stroke-miterlimit:10;" d="M385.534,169.101
					c-0.534,8.042,1.523,16.234,5.793,23.07"/>
				<path style="fill:none;stroke:#2E2854;stroke-linecap:round;stroke-linejoin:round;stroke-miterlimit:10;" d="M422.458,220.763
					c5.241-3.538,9.255-8.86,11.216-14.873"/>
				<path style="fill:none;stroke:#2E2854;stroke-linecap:round;stroke-linejoin:round;stroke-miterlimit:10;" d="M485.6,317.774
					c2.009-6.75,6.058-12.878,11.48-17.372"/>
				<path style="fill:none;stroke:#2E2854;stroke-linecap:round;stroke-linejoin:round;stroke-miterlimit:10;" d="M531.121,385.748
					c6.191-0.979,12.112-3.607,16.991-7.54"/>
				<path style="fill:none;stroke:#2E2854;stroke-linecap:round;stroke-linejoin:round;stroke-miterlimit:10;" d="M164.276,340.182
					c3.48,5.887,9.672,10.095,16.428,11.163"/>
				<path style="fill:none;stroke:#2E2854;stroke-linecap:round;stroke-linejoin:round;stroke-miterlimit:10;" d="M130.539,425.727
					c4.425-3.512,9.787-5.835,15.375-6.66"/>
				<path style="fill:none;stroke:#2E2854;stroke-linecap:round;stroke-linejoin:round;stroke-miterlimit:10;" d="M190.391,266.038
					c-2.519-4.244-3.986-9.109-4.233-14.038"/>
			</g>
			<path style="fill:#49AD9F;" d="M171.457,451.259h335.342c14.143-17.111,24.249-37.949,26.155-60.036
				c1.988-23.038-5.666-47.337-22.601-63.081c-16.936-15.744-43.402-21.444-64.312-11.572c6.827-13.843,13.506-25.066,16.631-37.523
				c3.124-12.456,2.234-26.552-5.375-36.898c-7.609-10.345-22.947-15.33-34.029-8.839c3.192-12.905,3.495-25.814,0.031-37.649
				c-1.371-4.681-3.568-9.496-7.752-12.002c-4.451-2.667-10.148-2.097-15.072-0.464c-11.61,3.851-21.187,13.378-25.098,24.969
				c-5.542-6.146-12.267-10.265-19.511-11.426c-7.245-1.162-14.92,0.648-20.882,4.922c-6.502,4.662-10.776,11.98-12.882,19.697
				c-2.105,7.718-2.196,15.852-1.572,23.827c-12.232-18.549-34.253-26.782-54.228-22.638c-19.976,4.143-36.906,20.454-41.789,40.263
				c-15.319-3.361-32.558-6.606-45.762,1.879c-13.509,8.68-17.677,27.404-13.646,42.947c4.032,15.543,14.561,28.506,25.442,40.316
				c-4.744-2.748-10.158-0.18-12.583,4.056c-2.426,4.235-2.151,9.664-0.098,14.092c2.053,4.429,5.687,7.957,9.689,10.752
				c-8.065,0.375-15.212,0.51-22.086,2.187c-6.874,1.677-13.541,5.042-17.993,10.541c-8.451,10.435-6.928,26.296-0.019,37.808
				C153.305,437.137,162.238,444.479,171.457,451.259z"/>
			<path style="opacity:0.15;fill:#2E2854;" d="M436.807,451.259c0.312-16.647-3.905-51.745-3.905-51.745
				c-31.526-8.014-73.941-2.009-73.941-2.009s18.698-12.132,35.818-34.076s11.583-57.392,11.583-57.392s8.748,0.215,5.847-38.856
				c-1.893-25.496-15.799-57.226-25.234-76.201c-5.265,4.604-9.362,10.553-11.599,17.183c-5.542-6.146-12.267-10.265-19.511-11.426
				c-7.245-1.162-14.92,0.648-20.882,4.922c-6.502,4.662-10.776,11.98-12.882,19.697c-2.105,7.718-2.196,15.852-1.572,23.827
				c-12.232-18.549-34.253-26.782-54.228-22.638c-19.976,4.143-36.906,20.454-41.789,40.263c-8.778-1.926-18.185-3.809-27.104-3.474
				c8.62,7.506,20.164,14.426,20.164,14.426c-29.011,43.991,16.945,161.474,16.945,161.474l-23.101,16.025H436.807z"/>
		</g>
	</g>
	<path style="fill:none;stroke:#2E2854;stroke-linecap:round;stroke-linejoin:round;stroke-miterlimit:10;" d="M245.982,231.352
		c3.374,12.584,10.556,24.12,20.36,32.702"/>
	<g>
		<g>
			<path style="fill:#623B8C;" d="M281.17,175.507c-8.566,3.838-19.616,0.96-25.222-6.568c-4.731-6.353-5.334-15.609-1.178-21.845
				c-4.749,0.188-9.671-1.98-12.248-5.974c-2.577-3.994-2.37-9.754,1.663-13.518c-2.158-0.968-3.69-3.198-3.821-5.56
				c-0.13-2.361,1.149-4.747,3.785-5.416c-2.411-2.571-3.447-6.359-2.682-9.798c0.766-3.438,3.312-6.429,7.757-7.634
				c-5.168-5.413-6.323-14.248-2.721-20.806c3.603-6.559,11.679-10.324,19.437-7.724c0.983-5.212,5.305-9.634,10.493-10.734
				c5.188-1.1,10.933,1.186,13.954,6.246c5.512-4.137,13.594-4.472,19.431-0.808c5.837,3.664,9.047,11.089,8.85,18.412
				c4.859,0.216,9.555,2.816,12.316,6.82c2.761,4.003,3.525,9.316,2.135,14.671c2.247,1.11,3.435,3.995,2.577,7.32
				c6.038,0.663,11.409,4.982,13.816,10.558c2.407,5.575,1.965,12.19-0.7,17.646c-2.667,5.457-7.42,9.763-12.898,12.384
				L281.17,175.507z"/>
			<g>
				<path style="fill:#E8614E;" d="M288.88,143.72c1.425,6.421,3.377,12.727,5.83,18.83c0,0,13.1-4.772,13.132-4.689
					c-2.711-7.028-4.779-12.255-8.051-18.164L288.88,143.72z"/>
				<path style="fill:#D95243;" d="M299.79,139.697l-10.911,4.023c0.424,1.91,0.909,3.805,1.426,5.692
					c3.258-0.414,8.111-1.534,12.139-4.531C301.632,143.169,300.769,141.463,299.79,139.697z"/>
			</g>
			<g>
				<g>
					<path style="fill:#E8614E;" d="M315.011,101.14c3.087,9.086,1.839,17.81-2.274,26.481c-4.112,8.67-11.864,15.336-21.19,17.597
						c-9.326,2.26-19.097-0.896-25.974-7.589c-7.308-7.113-9.957-15.276-12.581-25.832c7.151-6.241,12.381-14.654,16.415-23.55
						c2.139,3.925,5.993,6.874,10.342,7.911c4.348,1.037,9.119,0.146,12.985-2.237c0.061,3.054,2.188,5.96,5.081,6.941
						c2.892,0.982,6.348-0.03,8.362-1.978c0.435,1.651,1.77,3.035,3.404,3.528C311.215,102.905,313.093,102.493,315.011,101.14z"/>
					<g>
						<path style="fill:#D95243;" d="M312.737,127.621c0.671-1.413,1.256-2.828,1.768-4.246c-0.841-1.011-2.008-1.842-3.54-2.304
							c-2.712-0.819-5.885,0.288-7.511,2.606c-1.626,2.319-1.586,5.672,0.084,7.959c1.144,1.566,2.996,2.536,4.919,2.743
							C310.137,132.316,311.584,130.051,312.737,127.621z"/>
						<path style="fill:#D95243;" d="M265.572,137.629c2.463,2.397,5.302,4.331,8.354,5.735c1.159-1.197,1.926-2.781,2.021-4.447
							c0.162-2.827-1.548-5.767-5.064-6.829c-2.712-0.818-5.885,0.288-7.511,2.607c-0.079,0.113-0.136,0.238-0.207,0.356
							C263.909,135.925,264.706,136.785,265.572,137.629z"/>
					</g>
					<g>
						<g>
							<path style="fill:none;stroke:#2E2854;stroke-linecap:round;stroke-linejoin:round;stroke-miterlimit:10;" d="
								M256.194,111.884c0.885,1.274,1.771,2.549,2.801,3.766c1.076-1.455,2.662-2.527,4.414-2.982
								c1.751-0.455,3.659-0.29,5.306,0.459"/>
							<path style="fill:none;stroke:#2E2854;stroke-linecap:round;stroke-linejoin:round;stroke-miterlimit:10;" d="
								M261.28,113.572c-0.413-0.834-0.788-1.661-1.191-2.495"/>
							<path style="fill:none;stroke:#2E2854;stroke-linecap:round;stroke-linejoin:round;stroke-miterlimit:10;" d="
								M264.132,112.517c-0.141-0.525-0.301-1.029-0.442-1.554"/>
						</g>
						<g>
							<path style="fill:none;stroke:#2E2854;stroke-linecap:round;stroke-linejoin:round;stroke-miterlimit:10;" d="
								M301.458,102.937c-0.434,1.49-0.869,2.98-1.459,4.461c-1.483-1.039-3.327-1.551-5.132-1.425
								c-1.806,0.126-3.561,0.888-4.887,2.121"/>
							<path style="fill:none;stroke:#2E2854;stroke-linecap:round;stroke-linejoin:round;stroke-miterlimit:10;" d="
								M297.129,106.143c0.126-0.922,0.262-1.816,0.379-2.734"/>
							<path style="fill:none;stroke:#2E2854;stroke-linecap:round;stroke-linejoin:round;stroke-miterlimit:10;" d="
								M294.198,106.049c-0.034-0.543-0.106-1.061-0.14-1.604"/>
						</g>
						<path style="fill:none;stroke:#2E2854;stroke-linecap:round;stroke-linejoin:round;stroke-miterlimit:10;" d="M275.434,111.54
							c-0.053,1.357-0.107,2.713-0.152,4.349c1.295,0.103,2.61-0.074,3.831-0.517"/>
						<path style="fill:none;stroke:#2E2854;stroke-linecap:round;stroke-linejoin:round;stroke-miterlimit:10;" d="
							M276.834,124.791c3.552,0.354,7.216-0.523,10.221-2.449c3.006-1.926,5.334-4.888,6.497-8.263"/>
					</g>
				</g>
				<path style="fill:#E8614E;" d="M254.726,112.632c-1.655-1.314-4.285-1.285-6.121-0.191c-1.837,1.093-2.906,3.066-3.142,5.059
					c-0.236,1.993,0.277,4.007,1.074,5.875c1.164,2.731,2.939,5.241,5.186,7.331c1.566,1.457,3.498,2.761,5.725,2.913
					c2.226,0.152,4.68-1.27,4.798-3.309L254.726,112.632z"/>
				<g>
					<path style="fill:#E8614E;" d="M314.433,102.206c1.543-3.125,4.123-5.791,7.344-7.12c3.222-1.328,7.081-1.21,10.055,0.606
						c2.376,1.451,4.057,3.859,5.063,6.456c1.566,4.047,1.574,8.723-0.213,12.677c-1.786,3.956-5.406,7.092-9.635,8.063
						c-4.23,0.97-8.968-0.347-11.921-3.527L314.433,102.206z"/>
					<g>
						<path style="fill:none;stroke:#2E2854;stroke-linecap:round;stroke-linejoin:round;stroke-miterlimit:10;" d="
							M321.135,102.752c3.885-1.185,8.422,0.205,10.977,3.361"/>
						<path style="fill:none;stroke:#2E2854;stroke-linecap:round;stroke-linejoin:round;stroke-miterlimit:10;" d="
							M324.048,110.867c2.11-2.072,3.46-4.894,3.779-7.829"/>
					</g>
				</g>
			</g>
		</g>
		<g>
			<path style="fill:#CF6B07;" d="M391.077,301.682c3.589,0.065,7.335,0.096,10.555-1.49c3.033-1.494,5.394-4.907,4.731-8.15
				c0,0-0.9-6.974-5.54-11.663c-4.64-4.69-21.004,1.098-21.004,1.098L391.077,301.682z"/>
			<g>
				<g>
					<path style="fill:#E8614E;" d="M249.408,233.211c-9.268,5.558-21.38,0.341-29.48-6.813
						c-17.925-15.831-26.551-41.504-22.358-64.702c-6.467-1.262-12.9-2.694-19.739-4.164c-4.215,11.948-5.002,24.957-3.266,37.506
						c1.735,12.551,5.933,24.671,11.41,36.094c4.487,9.362,9.896,18.375,16.971,25.972c7.074,7.599,15.905,13.752,25.872,16.657
						l44.778-2.246c0,0,3.694-13.987-2.293-25.562C265.317,234.378,249.408,233.211,249.408,233.211z"/>
					<g>
						<path style="fill:#E8614E;" d="M181.393,151.674c-0.056,2.586-0.112,5.184-0.568,7.731c-0.102,0.569-0.231,1.151-0.56,1.627
							c-0.329,0.476-0.906,0.824-1.475,0.721c-0.798-0.144-1.199-1.031-1.422-1.811c-0.865-3.03-1.018-6.261-0.441-9.359
							c0.115-0.619,0.264-1.244,0.598-1.778c0.333-0.533,0.883-0.965,1.51-1.01c0.83-0.059,1.583,0.576,1.927,1.332
							C181.306,149.884,181.413,150.74,181.393,151.674z"/>
						<path style="fill:none;stroke:#2E2854;stroke-linecap:round;stroke-linejoin:round;stroke-miterlimit:10;" d="
							M181.393,151.674c-0.056,2.586-0.112,5.184-0.568,7.731c-0.102,0.569-0.231,1.151-0.56,1.627
							c-0.329,0.476-0.906,0.824-1.475,0.721c-0.798-0.144-1.199-1.031-1.422-1.811c-0.865-3.03-1.018-6.261-0.441-9.359
							c0.115-0.619,0.264-1.244,0.598-1.778c0.333-0.533,0.883-0.965,1.51-1.01c0.83-0.059,1.583,0.576,1.927,1.332
							C181.306,149.884,181.413,150.74,181.393,151.674z"/>
					</g>
					<path style="fill:#E8614E;" d="M192.212,146.307c0.058-4.43,0.546-8.869,1.455-13.265c0.211-1.019,0.664-2.239,1.918-2.522
						c0.919-0.208,1.881,0.241,2.369,0.869c0.489,0.629,0.608,1.399,0.698,2.143c0.543,4.445,0.501,8.951-0.126,13.424
						L192.212,146.307z"/>
					<path style="fill:#D95243;" d="M271.304,245.953c-0.017-0.032-0.036-0.062-0.052-0.094c-4.75-3.369-11.202-7.852-16.857-11.76
						c-2.919-0.734-4.986-0.889-4.986-0.889c-5.249,3.148-11.411,2.838-17.239,0.678c2.801,5.884,10.613,20.513,21.975,27.519
						c-7.722,3.55-18.066,5.256-30.902,0.704c-21.79-7.727-37.544-35.007-44.963-50.485c2.044,6.683,4.674,13.2,7.697,19.504
						c4.487,9.362,9.896,18.375,16.971,25.972c7.074,7.599,15.905,13.752,25.872,16.657l32.172-1.614
						c4.869-2.426,9.539-4.751,13.563-6.751C274.993,260.258,274.793,252.698,271.304,245.953z"/>
				</g>
				<path style="fill:#FD8309;" d="M278.125,170.388c-8.636,10.349-13.709,23.372-16.451,36.602
					c-2.021,9.754-3.724,21.099-12.267,26.221c0,0,6.226,23.354,24.189,38.304c0,0,24.232-0.831,33.254-25.761
					C315.873,220.823,278.125,170.388,278.125,170.388z"/>
				<path style="opacity:0.15;fill:#2E2854;" d="M277.667,225.078c-8.588-3.871-14.8-9.97-17.141-12.492
					c-1.051,4.92-2.354,9.863-4.726,13.934l19.391,8.453c-1.505,5.221-2.927,8.994-3.749,11.02
					c-5.672-4.026-13.87-9.706-20.204-14.074c-0.576,0.461-1.176,0.9-1.829,1.291c0,0,5.298,19.836,20.192,34.649
					c10.097-5.025,17.772-8.833,17.861-8.841c0.264-0.025,7.62-29.274,7.62-29.274l-13.989-40.947
					C281.409,202.969,279.748,215.362,277.667,225.078z"/>
			</g>
		</g>
		<g>
			<g>
				<path style="fill:#E8614E;" d="M249.179,260.411l6.983,61.208c5.87,2.996,13.252,6.691,21.461,9.823
					c0-0.001,6.752-16.04,4.757-33.602c-1.996-17.562-15.443-38.219-15.443-38.219h0
					C261.013,259.301,255.086,259.482,249.179,260.411z"/>
				<path style="fill:#D95243;" d="M277.623,331.442c0,0,2.69-6.398,4.173-15.531c-6.896-1.265-11.707-2.678-11.707-2.678
					l-6.055,12.302C268.18,327.527,272.751,329.583,277.623,331.442z"/>
				<path style="fill:#D95243;" d="M252.877,259.932c4.393,3.929,12.398,10.329,22.339,14.954
					c-4.062-8.785-8.279-15.265-8.279-15.265h0C262.248,259.368,257.558,259.435,252.877,259.932z"/>
				<g>
					<path style="fill:#5767BF;" d="M311.073,268.537c-14.443-4.051-29.278-8.111-44.136-8.915
						c7.703,23.076,11.334,47.502,10.687,71.82c11.616,4.432,24.89,7.733,37.899,6.31l31.244-63.618
						C335.016,272.17,323.151,270.282,311.073,268.537z"/>
					<path style="opacity:0.15;fill:#2E2854;" d="M319.861,314.453c-12.189,5.865-31.868,2.869-42.46,0.58
						c0.285,5.464,0.368,10.939,0.222,16.409c11.616,4.432,24.89,7.733,37.899,6.31l11.664-23.75
						C325.722,312.819,323.396,312.752,319.861,314.453z"/>
					<path style="opacity:0.15;fill:#2E2854;" d="M346.766,274.134c-11.75-1.964-23.615-3.852-35.694-5.597
						c-14.443-4.051-29.278-8.111-44.136-8.915c1.437,4.306,2.732,8.659,3.884,13.049c10.336,5.626,23.364,9.856,36.81,6.85
						c5.324,3.076,16.701,8.576,31.539,10.08L346.766,274.134z"/>
					<path style="fill:none;stroke:#2E2854;stroke-linecap:round;stroke-linejoin:round;stroke-miterlimit:10;" d="M288.028,332.818
						c2.17-23.536-0.568-47.513-8.008-69.947"/>
					<path style="fill:none;stroke:#2E2854;stroke-linecap:round;stroke-linejoin:round;stroke-miterlimit:10;" d="M311.073,268.537
						c-14.443-4.051-29.278-8.111-44.136-8.915"/>
				</g>
				<path style="fill:none;stroke:#2E2854;stroke-linecap:round;stroke-linejoin:round;stroke-miterlimit:10;" d="M266.937,259.622
					L266.937,259.622c-5.924-0.321-11.85-0.14-17.758,0.789"/>
			</g>
			<g>
				<g>
					<path style="fill:#E8614E;" d="M276.928,399.514c-0.634-28.86-2.913-57.683-6.839-86.281l-20.91-52.822
						c-8.191,1.287-16.422,4.134-22.411,9.866c-9.471,9.062-11.531,23.306-11.825,36.409c-0.736,32.807,6.681,67.557,15.545,100.526
						l29.275,9.769L276.928,399.514L276.928,399.514z"/>
					<path style="fill:none;stroke:#2E2854;stroke-linecap:round;stroke-linejoin:round;stroke-miterlimit:10;" d="M229.357,276.757
						c-2.757,1.434-4.195,4.997-3.204,7.944"/>
				</g>
				<g>
					<path style="fill:#FFFFFF;" d="M276.928,399.514c-15.399,1.023-31.525,3.698-46.441,7.699
						c2.725,10.136,5.585,20.106,8.39,29.797l22.441,9.641l15.501-10.046l0,0C277.155,424.244,277.2,411.876,276.928,399.514z"/>
					<g>
						<path style="fill:none;stroke:#D2D4E0;stroke-linecap:round;stroke-linejoin:round;stroke-miterlimit:10;" d="
							M238.324,408.579c0.35,1.314,0.699,2.394,1.047,3.707"/>
						<path style="fill:none;stroke:#D2D4E0;stroke-linecap:round;stroke-linejoin:round;stroke-miterlimit:10;" d="
							M245.422,407.621c0.31,1.066,0.621,2.13,0.931,3.196"/>
						<path style="fill:none;stroke:#D2D4E0;stroke-linecap:round;stroke-linejoin:round;stroke-miterlimit:10;" d="
							M253.102,406.449c0.31,1.03,0.621,2.06,0.931,3.089"/>
						<path style="fill:none;stroke:#D2D4E0;stroke-linecap:round;stroke-linejoin:round;stroke-miterlimit:10;" d="
							M260.917,405.127c0.189,0.933,0.613,2.52,0.803,3.453"/>
						<path style="fill:none;stroke:#D2D4E0;stroke-linecap:round;stroke-linejoin:round;stroke-miterlimit:10;" d="
							M267.938,404.368c0.208,1.05,0.415,2.099,0.624,3.149"/>
					</g>
					<path style="fill:#2E2854;" d="M276.82,436.604l-37.943,0.405c0,0-11.822,9.638-16.184,14.249h53.6
						C276.521,446.376,276.688,441.491,276.82,436.604z"/>
				</g>
				<path style="fill:none;stroke:#2E2854;stroke-linecap:round;stroke-linejoin:round;stroke-miterlimit:10;" d="M276.82,436.604
					c0.335-12.36,0.38-24.728,0.108-37.09c-0.634-28.86-2.913-57.683-6.839-86.281"/>
				<g>
					<path style="fill:none;stroke:#2E2854;stroke-linecap:round;stroke-linejoin:round;stroke-miterlimit:10;" d="M249.179,260.411
						c-8.191,1.287-16.422,4.134-22.411,9.866c-9.471,9.062-11.531,23.306-11.825,36.409c-0.736,32.807,6.681,67.557,15.545,100.526
						"/>
					<path style="fill:none;stroke:#2E2854;stroke-linecap:round;stroke-linejoin:round;stroke-miterlimit:10;" d="M229.357,276.757
						c-2.757,1.434-4.195,4.997-3.204,7.944"/>
				</g>
			</g>
		</g>
		<g>
			<g>
				<path style="fill:#E8614E;" d="M338.173,402.871c0,0-21.999,1.737-36.501,12.115c-14.502,10.378-20.842,20.725-20.842,20.725
					c0.836,1.397,1.798,2.718,2.894,3.94c5.694,6.354,14.275,9.353,22.702,10.691c13.505,2.145,27.3,0.654,40.855-1.14
					c14.365-1.9,28.34-4.14,42.328-6.708l19.164-13.837l-24.219-29.266C369.039,399.551,353.536,400.709,338.173,402.871z"/>
				<g>
					<path style="fill:#D95243;" d="M404.109,432.024c-11.378,2.085-27.763,5.126-46.955,8.801
						c-31.614,6.054-64.937-0.186-74.454-2.435c0.334,0.426,0.66,0.857,1.023,1.262c5.694,6.354,14.275,9.353,22.702,10.691
						c13.505,2.145,27.3,0.654,40.855-1.14c14.365-1.9,28.34-4.14,42.328-6.708L404.109,432.024z"/>
					<path style="fill:#D95243;" d="M329.383,412.497c0,0,26.903-6.466,59.156-8.289l-3.986-4.817
						c-15.514,0.16-31.017,1.318-46.38,3.48c0,0-3.272,0.261-8.115,1.171L329.383,412.497z"/>
				</g>
				<g>
					<path style="fill:#FFFFFF;" d="M415.718,400.43c-10.373-0.793-20.78-1.146-31.183-1.039c0.167,14.493,1.852,28.969,5.033,43.11
						c9.112-1.672,18.23-3.48,27.464-5.434l5.71-18.888L415.718,400.43z"/>
					<path style="opacity:0.15;fill:#2E2854;" d="M419.395,429.249c-4.048,0.726-15.378,2.769-31.353,5.743
						c0.468,2.511,0.965,5.017,1.526,7.51c9.112-1.672,18.23-3.48,27.464-5.434L419.395,429.249z"/>
					<path style="opacity:0.15;fill:#2E2854;" d="M384.534,399.391c0.02,1.687,0.064,3.374,0.124,5.06
						c10.416-0.715,21.497-0.979,32.491-0.402l-1.432-3.619C405.344,399.637,394.937,399.284,384.534,399.391z"/>
					<g>
						<path style="fill:none;stroke:#D2D4E0;stroke-linecap:round;stroke-linejoin:round;stroke-miterlimit:10;" d="
							M393.541,405.897c-1.332,0.269-2.431,0.553-3.764,0.822"/>
						<path style="fill:none;stroke:#D2D4E0;stroke-linecap:round;stroke-linejoin:round;stroke-miterlimit:10;" d="
							M394.072,413.039c-1.082,0.246-2.165,0.491-3.246,0.737"/>
						<path style="fill:none;stroke:#D2D4E0;stroke-linecap:round;stroke-linejoin:round;stroke-miterlimit:10;" d="
							M394.779,420.776c-1.046,0.248-2.093,0.496-3.14,0.743"/>
						<path style="fill:none;stroke:#D2D4E0;stroke-linecap:round;stroke-linejoin:round;stroke-miterlimit:10;" d="
							M395.629,428.657c-0.943,0.133-2.552,0.46-3.495,0.594"/>
						<path style="fill:none;stroke:#D2D4E0;stroke-linecap:round;stroke-linejoin:round;stroke-miterlimit:10;" d="M395.965,435.71
							c-1.061,0.144-2.122,0.289-3.182,0.433"/>
					</g>
					<path style="fill:#2E2854;" d="M430.083,401.809c-4.778-0.56-9.569-1.012-14.365-1.38l1.314,36.638
						c0,0,14.444,13.784,15.871,14.192C432.902,434.276,431.965,418.12,430.083,401.809z"/>
				</g>
			</g>
			<g>
				<g>
					<path style="fill:#E8614E;" d="M336.13,362.028l-42.17,1.402l0,0c-4.575,9.819-8.751,19.812-12.335,30.049
						c-2.676,7.643-5.037,15.523-5.247,23.62c-0.167,6.455,1.165,13.118,4.452,18.611l48.554-23.213
						c6.608-4.458,13.179-9.009,19.556-13.798L336.13,362.028z"/>
					<path style="fill:none;stroke:#2E2854;stroke-linecap:round;stroke-linejoin:round;stroke-miterlimit:10;" d="M329.383,412.497
						c6.608-4.458,13.179-9.009,19.556-13.798"/>
					<path style="fill:none;stroke:#2E2854;stroke-linecap:round;stroke-linejoin:round;stroke-miterlimit:10;" d="M285.948,423.082
						c-1.968,2.522-2.109,6.315-0.333,8.975"/>
					<path style="fill:none;stroke:#2E2854;stroke-linecap:round;stroke-linejoin:round;stroke-miterlimit:10;" d="M293.96,363.43
						L293.96,363.43c-4.575,9.819-8.751,19.812-12.335,30.049c-2.676,7.643-5.037,15.523-5.247,23.62
						c-0.163,6.269,1.09,12.736,4.173,18.135"/>
				</g>
				<g>
					<path style="fill:#5767BF;" d="M346.766,274.134l-19.394,27.252c-11.732,20.342-23.509,40.786-33.413,62.044
						c16.791,13.947,35.302,25.819,54.979,35.27c8.007-6.013,15.7-12.41,22.694-19.566c12.566-12.857,22.908-28.342,27.35-45.764
						c4.443-17.42,2.48-36.898-11.228-52.119C374.146,278.843,360.535,276.436,346.766,274.134z"/>
					<path style="opacity:0.15;fill:#2E2854;" d="M393.795,289.433c-1.688-2.831-3.686-5.571-6.038-8.183
						c-13.611-2.407-27.221-4.815-40.99-7.116l-10.734,15.084C336.032,289.218,366.385,293.132,393.795,289.433z"/>
					<path style="fill:none;stroke:#2E2854;stroke-linecap:round;stroke-linejoin:round;stroke-miterlimit:10;" d="M301.06,354.845
						c17.806,12.527,35.942,24.585,54.384,36.156"/>
					<path style="fill:none;stroke:#2E2854;stroke-linecap:round;stroke-linejoin:round;stroke-miterlimit:10;" d="M349.93,292.244
						c0.084,8.209,0.424,17.147,5.72,23.419c4.214,4.992,11.322,7.345,17.683,5.853"/>
					<path style="fill:none;stroke:#2E2854;stroke-linecap:round;stroke-linejoin:round;stroke-miterlimit:10;" d="M327.372,301.386
						c-11.732,20.342-23.509,40.786-33.413,62.044"/>
					<path style="fill:none;stroke:#2E2854;stroke-linecap:round;stroke-linejoin:round;stroke-miterlimit:10;" d="M348.939,398.7
						c8.007-6.013,15.7-12.41,22.694-19.566c12.566-12.857,22.908-28.342,27.35-45.764c4.443-17.42,2.48-36.898-11.228-52.119"/>
				</g>
			</g>
		</g>
		<g>
			<g>
				<path style="fill:#FD8309;" d="M392.929,216.895c-6.151-20.811-14.766-42.193-31.913-55.493
					c-11.436-8.869-26.163-13.36-40.603-12.456l0,0l-13.786,18.179l-23.415-2.097l0,0c-1.231,1.147-2.421,2.338-3.549,3.588
					c-0.525,0.581-1.037,1.173-1.538,1.772l2.967,18.41c3.544,24.255,5.053,48.808,4.506,73.315
					c2.551,0.511,5.097,1.079,7.636,1.686c9.685,9.969,23.491,15.612,37.09,18.485c13.598,2.875,27.637,2.841,41.521,2.189
					c9.036-0.425,18.274-1.084,26.969,1.409c3.089,0.886,6.399,2.505,7.39,5.563c0.064,0.198,0.116,0.397,0.157,0.597
					C403.996,265.905,400.366,242.063,392.929,216.895z"/>
				<path style="opacity:0.15;fill:#2E2854;" d="M368.507,175.337l-3.046,10.322l-38.089,54.198l-41.707,8.462
					c0.042,4.598,0.036,9.196-0.067,13.793c2.551,0.511,5.097,1.079,7.636,1.686c5.834,6.005,13.167,10.431,21.046,13.637
					c13.282-3.423,27.829-11.626,42.972-27.49l9.791,2.275C367.044,252.22,383.835,210.396,368.507,175.337z"/>
				<path style="opacity:0.15;fill:#2E2854;" d="M284.947,226.672c0.143,2.445,0.272,4.89,0.374,7.337l29.306-1.966
					c0,0,16.22-15.686,16.319-16.398c0.099-0.712-9.163-41.257-9.163-41.257s-1.518,34.413-12.793,44.501
					C300.619,226.379,289.912,226.9,284.947,226.672z"/>
				<path style="fill:none;stroke:#2E2854;stroke-linecap:round;stroke-linejoin:round;stroke-miterlimit:10;" d="M281.093,188.798
					c3.544,24.255,5.053,48.808,4.506,73.315"/>
				<path style="fill:#E8614E;" d="M307.998,171.295c8.415-3.637,13.619-13.325,12.415-22.349c-0.497,0.031-0.994,0.052-1.49,0.096
					c-13.234,1.173-25.995,6.937-35.712,15.986C288.962,172.086,299.584,174.932,307.998,171.295z"/>
			</g>
			<path style="fill:#E8614E;" d="M235.149,153.691l-5.987,8.858l8.854,6.166c0.014-5.889-0.864-10.428-2.609-14.608"/>
			<g>
				<path style="fill:#623B8C;" d="M236.624,146.027c-0.469,6.394-1.389,12.756-2.755,19.021c-0.678,3.113-3.46,5.313-6.646,5.334
					c-13.986,0.089-27.501-0.765-40.808-2.657c-3.245-0.461-5.702-3.155-5.878-6.427c-0.318-5.95-0.117-11.854,0.633-17.681
					c0.414-3.206,3.002-5.706,6.226-5.96c14.1-1.109,28.392-0.865,43.32,1.043C234.325,139.159,236.891,142.4,236.624,146.027z"/>
				<path style="fill:none;stroke:#2E2854;stroke-linecap:round;stroke-linejoin:round;stroke-miterlimit:10;" d="M189.655,141.654
					c-2.099-0.458-4.431,0.976-4.97,3.056c-0.539,2.08,0.802,4.466,2.859,5.086c2.057,0.62,4.494-0.627,5.194-2.658
					C193.439,145.107,192.396,142.252,189.655,141.654z"/>
				<path style="fill:#F1DEDC;" d="M190.014,144.187c-0.632-0.589-1.67-0.671-2.399-0.208c-0.729,0.462-1.096,1.419-0.888,2.257
					c0.203,0.817,0.935,1.476,1.768,1.59c0.833,0.114,1.717-0.326,2.124-1.063C191.024,146.025,190.927,145.038,190.014,144.187z"/>
			</g>
			<g>
				<g>
					<path style="fill:#E8614E;" d="M238.016,168.715c4.328,9.718,7.569,19.901,12.098,29.527
						c4.529,9.627,10.533,18.868,19.164,25.09c8.629,6.221,20.251,8.991,30.178,5.166c5.445-2.098,9.927-5.974,13.349-10.728
						l24.672,7.857l16.631,18.224c-9.912,13.257-24.624,22.952-40.828,26.453c-20.614,4.454-43.169-1.221-59.222-14.899
						c-11.426-9.737-19.404-23.013-24.899-36.985c-5.494-13.971-8.664-28.726-11.813-43.406c-4.035-4.609-6.429-8.403-8.59-12.327
						c-0.317-0.574-0.635-1.172-0.689-1.826c-0.055-0.654,0.221-1.38,0.818-1.654c0.823-0.38,1.744,0.236,2.419,0.842
						c2.515,2.26,4.7,4.886,6.464,7.771c-2.674-5.256-5.151-10.395-7.25-15.684c-0.42-1.06-0.756-2.444,0.103-3.193
						c0.561-0.49,1.439-0.451,2.096-0.103c0.658,0.349,1.142,0.946,1.594,1.538c3.258,4.264,5.797,9.025,8.32,13.762
						c-2.307-5.804-4.805-11.259-6.368-17.017c-0.152-0.562-0.297-1.141-0.238-1.721c0.059-0.578,0.363-1.167,0.892-1.411
						c0.517-0.239,1.147-0.101,1.621,0.213c0.475,0.314,0.826,0.78,1.156,1.244c3.462,4.872,5.714,10.479,7.933,16.026
						c-1.936-5.196-3.485-10.317-4.504-15.543c-0.187-0.956-0.218-2.204,0.663-2.62c0.573-0.271,1.263-0.011,1.769,0.369
						c1.049,0.789,1.641,2.031,2.178,3.229c1.883,4.201,3.586,8.481,5.103,12.826"/>
					<path style="fill:none;stroke:#2E2854;stroke-linecap:round;stroke-linejoin:round;stroke-miterlimit:10;" d="M354.107,243.851
						c-9.912,13.257-24.624,22.952-40.828,26.453c-20.614,4.454-43.169-1.221-59.222-14.899
						c-11.426-9.737-19.404-23.013-24.899-36.985c-5.494-13.971-8.664-28.726-11.813-43.406c-4.035-4.609-6.429-8.403-8.59-12.327
						c-0.317-0.574-0.635-1.172-0.689-1.826c-0.055-0.654,0.221-1.38,0.818-1.654c0.823-0.38,1.744,0.236,2.419,0.842
						c2.515,2.26,4.7,4.886,6.464,7.771c-2.674-5.256-5.151-10.395-7.25-15.684c-0.42-1.06-0.756-2.444,0.103-3.193
						c0.561-0.49,1.439-0.451,2.096-0.103c0.658,0.349,1.142,0.946,1.594,1.538c3.258,4.264,5.797,9.025,8.32,13.762
						c-2.307-5.804-4.805-11.259-6.368-17.017c-0.152-0.562-0.297-1.141-0.238-1.721c0.059-0.578,0.363-1.167,0.892-1.411
						c0.517-0.239,1.147-0.101,1.621,0.213c0.475,0.314,0.826,0.78,1.156,1.244c3.462,4.872,5.714,10.479,7.933,16.026
						c-1.936-5.196-3.485-10.317-4.504-15.543c-0.187-0.956-0.218-2.204,0.663-2.62c0.573-0.271,1.263-0.011,1.769,0.369
						c1.049,0.789,1.641,2.031,2.178,3.229c1.883,4.201,3.586,8.481,5.103,12.826"/>
				</g>
				<g>
					<path style="fill:#FD8309;" d="M368.507,175.337c8.152,23.104,6.964,49.357-3.244,71.629
						c-19.789-4.351-38.396-14.566-52.459-29.196c2.687-3.733,4.721-8.009,6.056-12.392c3.037-9.966,2.993-20.572,2.923-30.989
						L368.507,175.337z"/>
					<path style="fill:none;stroke:#2E2854;stroke-linecap:round;stroke-linejoin:round;stroke-miterlimit:10;" d="M317.292,214.325
						c14.401,11.479,31.309,19.8,49.192,24.2"/>
					<path style="fill:none;stroke:#2E2854;stroke-linecap:round;stroke-linejoin:round;stroke-miterlimit:10;" d="M368.507,175.337
						c8.152,23.104,6.964,49.357-3.244,71.629c-19.789-4.351-38.396-14.566-52.459-29.196c2.687-3.733,4.721-8.009,6.056-12.392
						c3.037-9.966,2.993-20.572,2.923-30.989"/>
				</g>
			</g>
		</g>
		
			<line style="fill:none;stroke:#2E2854;stroke-linecap:round;stroke-linejoin:round;stroke-miterlimit:10;" x1="54.853" y1="451.259" x2="556.585" y2="451.259"/>
	</g>
	<g>
		<path style="fill:#F1C1BC;" d="M111.179,406.688c-2.84-1.918-7.06-1.406-9.359,1.135c-2.3,2.541-2.388,6.791-0.197,9.426
			c1.069,1.286,2.637,2.191,4.306,2.302c1.988,0.132,3.928-0.855,5.336-2.264c1.366-1.365,2.33-3.184,2.449-5.111
			C113.832,410.248,113.179,408.037,111.179,406.688z"/>
		<path style="fill:#F1DEDC;" d="M149.478,314.511c-2.84-1.918-7.06-1.406-9.359,1.135c-2.3,2.541-2.388,6.791-0.197,9.426
			c1.069,1.286,2.637,2.191,4.306,2.302c1.988,0.132,3.928-0.855,5.336-2.264c1.366-1.365,2.33-3.184,2.449-5.111
			C152.131,318.071,151.478,315.86,149.478,314.511z"/>
		<path style="fill:#F1DEDC;" d="M158.547,362.026c-1.321,0.055-2.585-1.046-2.713-2.363c-0.128-1.314,0.901-2.638,2.207-2.839
			c1.307-0.202,2.686,0.752,2.959,2.046C161.272,360.163,160.446,361.947,158.547,362.026z"/>
		<path style="fill:#F1DEDC;" d="M422.828,178.225c-1.321,0.055-2.585-1.046-2.713-2.363c-0.128-1.314,0.901-2.638,2.207-2.839
			c1.307-0.202,2.686,0.752,2.959,2.046C425.554,176.361,424.727,178.146,422.828,178.225z"/>
		<path style="fill:#F1DEDC;" d="M218.598,119.452c-1.321,0.055-2.585-1.046-2.713-2.363c-0.127-1.314,0.901-2.638,2.207-2.839
			c1.307-0.201,2.686,0.752,2.959,2.046C221.323,117.59,220.496,119.374,218.598,119.452z"/>
		<path style="fill:#F1DEDC;" d="M171.007,226.476c-1.321,0.055-2.585-1.046-2.713-2.363c-0.128-1.314,0.901-2.638,2.207-2.839
			c1.307-0.202,2.686,0.752,2.959,2.046C173.733,224.613,172.906,226.397,171.007,226.476z"/>
		<path style="fill:#F1DEDC;" d="M491.156,283.864c-1.321,0.055-2.585-1.046-2.713-2.363c-0.128-1.314,0.901-2.638,2.207-2.839
			c1.307-0.202,2.686,0.752,2.959,2.046C493.881,282.001,493.054,283.785,491.156,283.864z"/>
		<path style="fill:#F1C1BC;" d="M545.434,324.908c-0.582,2.7,0.449,5.747,2.704,7.342s5.639,1.485,7.632-0.427
			c1.409-1.352,2.019-3.379,2.021-5.332c0.003-1.907-0.558-3.866-1.831-5.285c-1.497-1.669-3.942-2.422-6.118-1.886
			C547.665,319.855,546.126,321.705,545.434,324.908z"/>
		<path style="fill:#F1C1BC;" d="M542.715,307.747c-0.925,0.547-2.09,1.1-3.015,0.551c-0.538-0.321-0.83-0.953-0.903-1.575
			c-0.132-1.12,0.405-2.32,1.39-2.872c0.984-0.55,2.365-0.336,3.055,0.557C543.93,305.302,543.925,307.032,542.715,307.747z"/>
		<path style="fill:#F1C1BC;" d="M534.735,339.797c-0.925,0.547-2.09,1.1-3.015,0.551c-0.538-0.321-0.83-0.953-0.903-1.575
			c-0.132-1.12,0.405-2.321,1.39-2.872c0.984-0.55,2.365-0.336,3.055,0.557C535.95,337.351,535.945,339.081,534.735,339.797z"/>
		<path style="fill:#F1C1BC;" d="M63.257,291.834c-0.925,0.547-2.09,1.1-3.015,0.551c-0.538-0.321-0.83-0.953-0.903-1.575
			c-0.132-1.12,0.405-2.321,1.389-2.872c0.985-0.55,2.365-0.336,3.055,0.557C64.471,289.389,64.466,291.119,63.257,291.834z"/>
		<path style="fill:#F1C1BC;" d="M334.458,73.447c-0.926,0.547-2.09,1.1-3.015,0.551c-0.538-0.321-0.83-0.953-0.903-1.575
			c-0.132-1.119,0.405-2.321,1.389-2.872c0.984-0.55,2.365-0.336,3.055,0.557C335.672,71.001,335.667,72.731,334.458,73.447z"/>
		<path style="fill:#F1C1BC;" d="M382.336,157.831c-1.25-0.503-2.494-1.063-3.562-1.884c-1.068-0.822-1.957-1.935-2.29-3.241
			c-0.515-2.02,0.442-4.258,2.111-5.51c1.668-1.251,3.923-1.572,5.958-1.119c2.079,0.461,4.015,1.744,5.033,3.615
			c1.018,1.87,1.005,4.323-0.236,6.054C388.109,157.477,385.404,159.068,382.336,157.831z"/>
		<path style="fill:#F1DEDC;" d="M459.12,231.324c0.35-1.301,0.756-2.603,1.444-3.763c0.688-1.158,1.686-2.175,2.943-2.662
			c1.943-0.753,4.281-0.072,5.723,1.435c1.442,1.506,2.031,3.706,1.825,5.781c-0.209,2.12-1.25,4.195-2.985,5.43
			c-1.735,1.234-4.171,1.516-6.039,0.491C460.164,237.012,458.26,234.518,459.12,231.324z"/>
		<path style="fill:#F1C1BC;" d="M401.519,145.854c-0.65-0.589-1.315-1.201-1.689-1.994c-0.374-0.794-0.387-1.824,0.203-2.473
			c0.764-0.837,2.143-0.689,3.162-0.193c0.94,0.458,1.786,1.184,2.193,2.148c0.408,0.963,0.301,2.176-0.419,2.934
			C404.25,147.034,402.923,147.129,401.519,145.854z"/>
		<path style="fill:#F1C1BC;" d="M149.261,150.157c-1.336-0.602-2.96-0.413-4.211,0.35c-1.252,0.763-2.138,2.05-2.565,3.451
			c-0.857,2.811,0.325,6.235,2.95,7.559c1.768,0.893,4.017,0.743,5.652-0.376c1.634-1.118,2.588-3.161,2.396-5.132
			C153.291,154.038,152.359,151.552,149.261,150.157z"/>
		<path style="fill:#F1C1BC;" d="M75.04,301.705c-1.336-0.602-2.96-0.413-4.211,0.35c-1.252,0.763-2.138,2.05-2.565,3.451
			c-0.857,2.811,0.325,6.235,2.95,7.559c1.768,0.893,4.017,0.742,5.652-0.376c1.634-1.119,2.588-3.161,2.396-5.132
			C79.07,305.586,78.138,303.099,75.04,301.705z"/>
	</g>
	<g>
		<path style="fill:#FFFFFF;" d="M180.021,69.968c0.932,12.086,2.413,24.131,4.436,36.083c0,0,35.678-3.427,35.511-3.527
			c-0.501-12.077-1.83-24.121-3.974-36.016L180.021,69.968z"/>
		<path style="fill:#C6E6FF;" d="M211.886,71.601c-9.307,0.856-18.614,1.713-27.77,2.917c1.127,8.968,2.255,17.936,4.375,27.522
			c8.811-0.292,17.595-1.451,26.182-3.454L211.886,71.601z"/>
		<path style="fill:#FD8309;" d="M185.01,81.5c1.922,0.256,3.972-0.559,5.143-2.114c1.205-1.598,1.395-3.872,0.539-5.674
			c-2.199,0.252-4.392,0.518-6.576,0.805C184.408,76.841,184.701,79.165,185.01,81.5z"/>
		<path style="fill:#623B8C;" d="M214.673,98.586l-0.748-7.24c-0.709-1.505-1.791-2.835-3.146-3.802
			c-1.944-1.387-4.412-2.022-6.784-1.743c0.68-1.351,1.292-2.746,1.491-4.233c0.197-1.486-0.071-3.099-1.041-4.242
			c-1.448-1.703-4.211-1.895-6.116-0.724c-1.904,1.172-2.965,3.425-3.107,5.657c-0.142,2.231,0.53,4.443,1.466,6.474
			c-2.782,0.303-5.295,1.899-6.99,4.131c-1.044,1.374-1.77,2.983-2.137,4.669c0.29,1.49,0.593,2.988,0.929,4.507
			C197.302,101.747,206.087,100.589,214.673,98.586z"/>
		<path style="fill:none;stroke:#2E2854;stroke-linecap:round;stroke-linejoin:round;stroke-miterlimit:10;" d="M211.886,71.601
			c-9.307,0.856-18.614,1.713-27.77,2.917c1.127,8.968,2.255,17.936,4.375,27.522c8.811-0.292,17.595-1.451,26.182-3.454
			L211.886,71.601z"/>
	</g>
	<g>
		<path style="fill:#FFFFFF;" d="M383.286,87.002c-2.392,13.251-4.183,26.61-5.364,40.023c0,0,39.305,6.334,39.153,6.18
			c2.853-13.12,4.806-26.435,5.842-39.821L383.286,87.002z"/>
		<path style="fill:#C6E6FF;" d="M417.073,97.703c-10.243-1.693-20.486-3.386-30.663-4.663c-1.307,9.954-2.612,19.909-3.026,30.805
			c9.552,2.16,19.316,3.381,29.106,3.64L417.073,97.703z"/>
		<path style="fill:#FFFFFF;" d="M415.867,105.54c-0.849,0.042-1.688,0.302-2.39,0.783c-0.728-2.558-2.253-4.387-4.214-4.982
			c-1.961-0.595-4.245,0.078-5.571,1.64c-1.155-1.516-1.996-2.269-2.98-2.528c-0.984-0.258-2.086-0.017-2.872,0.628
			c0.047-1.364-0.23-2.749-1.064-3.66c-0.835-0.91-2.191-1.306-3.385-0.987c-0.306-1.011-0.677-1.882-1.168-2.611
			c-1.939-0.27-3.878-0.54-5.813-0.783c-1.307,9.954-2.612,19.909-3.026,30.805c9.552,2.16,19.316,3.381,29.107,3.64L415.867,105.54
			z"/>
		<path style="fill:#76C9BF;" d="M414.264,108.439c-0.39-0.131-0.803,0.117-1.114,0.386c-1.36,1.174-2.11,2.887-2.818,4.54
			c0.106-1.54,0.136-2.853-0.022-4.143c-0.047-0.382-0.125-0.791-0.401-1.06c-0.311-0.302-0.807-0.342-1.219-0.207
			c-0.412,0.135-0.756,0.417-1.081,0.704c0.064-1.217,0.077-2.204-0.134-3.143c-0.077-0.345-0.225-0.728-0.557-0.849
			c-0.255-0.092-0.546,0.007-0.75,0.185c-0.204,0.177-0.336,0.422-0.456,0.663c-0.937,1.879-1.445,3.937-1.948,5.976
			c0.015-1.321-0.091-2.511-0.467-3.611c-0.184-0.541-0.567-1.148-1.138-1.114c-0.385,0.024-0.681,0.339-0.912,0.645
			c-0.745,0.985-1.276,2.128-1.551,3.332c0.452-1.881,0.448-3.526,0.131-5.11c-0.089-0.44-0.221-0.908-0.574-1.185
			c-0.41-0.321-1.019-0.284-1.468-0.023c-0.45,0.262-0.763,0.705-1.008,1.164c-0.909,1.708-1.025,3.714-1.121,5.648l-3.947,6.913
			l21.741,3.109l1.612-10.476c-0.028-0.411-0.07-0.82-0.135-1.227C414.853,109.108,414.696,108.586,414.264,108.439z"/>
		<path style="fill:#49AD9F;" d="M385.458,100.404c-0.944,7.548-1.763,15.227-2.074,23.442c4.328,0.979,8.701,1.754,13.099,2.345
			c0.793-4.818,1.54-9.989,1.54-9.989C396.835,109.282,391.917,103.138,385.458,100.404z"/>
		<path style="fill:#FD8309;" d="M413.866,118.544c-9.401-4.842-21.352-4.289-30.291,1.339c-0.076,1.309-0.141,2.629-0.191,3.964
			c9.552,2.16,19.316,3.381,29.107,3.64L413.866,118.544z"/>
		<path style="fill:none;stroke:#2E2854;stroke-linecap:round;stroke-linejoin:round;stroke-miterlimit:10;" d="M417.073,97.703
			c-10.243-1.693-20.486-3.386-30.663-4.663c-1.307,9.954-2.612,19.909-3.026,30.805c9.552,2.16,19.316,3.381,29.106,3.64
			L417.073,97.703z"/>
	</g>
	<g>
		<path style="fill:#FFFFFF;" d="M109.752,134.815c8.772,10.216,18.007,20.033,27.668,29.413c0,0,29.712-26.499,29.496-26.478
			c-8.379-10.491-17.477-20.407-27.209-29.656L109.752,134.815z"/>
		<path style="fill:#F3C6FF;" d="M139.371,115.354c-7.776,6.879-15.551,13.758-22.963,20.848
			c6.899,7.294,13.798,14.587,21.992,21.783c7.703-6.048,14.81-12.854,21.188-20.286L139.371,115.354z"/>
		<path style="fill:#FDD4AA;" d="M133.221,153.265c1.677,1.577,3.393,3.151,5.179,4.72c7.703-6.048,14.81-12.854,21.188-20.286
			L145.52,122.15c-10.646,9.16-12.299,19.715-12.299,19.715V153.265z"/>
		<path style="fill:#FDB46A;" d="M121.52,141.585c5.26,5.495,10.702,10.975,16.879,16.4c3.49-2.74,6.851-5.644,10.084-8.683
			c-3.238-3.655-6.779-7.498-6.779-7.498C135.586,138.359,127.716,138.299,121.52,141.585z"/>
		<path style="fill:#FD8309;" d="M153.517,130.989c-9.688,4.239-16.798,13.86-18.072,24.346c0.967,0.884,1.951,1.768,2.955,2.649
			c7.702-6.048,14.81-12.854,21.188-20.286L153.517,130.989z"/>
		<path style="fill:none;stroke:#2E2854;stroke-linecap:round;stroke-linejoin:round;stroke-miterlimit:10;" d="M139.371,115.354
			c-7.776,6.879-15.551,13.758-22.963,20.848c6.899,7.294,13.798,14.587,21.992,21.783c7.703-6.048,14.81-12.854,21.188-20.286
			L139.371,115.354z"/>
	</g>
</g>
</svg>
